# xmcd CD database file
#
# Track frame offsets:
#	150
#	22055
#	32705
#	43782
#	58917
#	71592
#	81117
#	91617
#	105642
#	119472
#	136647
#	151422
#	164472
#	178347
#
# Disc length: 2547 seconds
#
# Revision: 0
# Processed by: cddbd v1.5PL3 Copyright (c) Steve Scherf et al.
# Submitted via: CDex 1.51
#
DISCID=ba09f10e
DTITLE=Dimitri Plazomiti - Kerkini
DYEAR=1998
DGENRE=New Age
TTITLE0=Proti fora
TTITLE1=Varkada
TTITLE2=Xeimoniatiko topio
TTITLE3=Andismena noyfara
TTITLE4=Sti jalini ton neron
TTITLE5=Oikoperiiyitis
TTITLE6=Ramsar 1971
TTITLE7=Oyranio tozo
TTITLE8=Apodimitika
TTITLE9=Psarades
TTITLE10=Ydrovia poylia
TTITLE11=Vydismeno dasos
TTITLE12=Proini paxni
TTITLE13=Kerkini
EXTD=YEAR: 1998
EXTT0=
EXTT1=
EXTT2=
EXTT3=
EXTT4=
EXTT5=
EXTT6=
EXTT7=
EXTT8=
EXTT9=
EXTT10=
EXTT11=
EXTT12=
EXTT13=
PLAYORDER=
